<svg xmlns="http://www.w3.org/2000/svg" viewBox="0 0 480 480"><title>favicon</title><path d="M146.25,122.59V390.84A104.1,104.1,0,0,1,142,421a65.2,65.2,0,0,1-13.5,24.63,63.11,63.11,0,0,1-23.87,16.5q-14.63,6-35.38,6a90.16,90.16,0,0,1-15.75-1.25,118.93,118.93,0,0,1-14.25-3.5l2-29.25q0.75-5,4.13-5.75t12.88-.75q19,0,26.63-8.37t7.63-28.37V122.59h53.75Zm8.75-77a33.65,33.65,0,0,1-2.87,13.75,36.16,36.16,0,0,1-7.87,11.38,38.82,38.82,0,0,1-11.5,7.75,34.21,34.21,0,0,1-14,2.88,32.73,32.73,0,0,1-13.62-2.87,37.62,37.62,0,0,1-11.25-7.75,35.4,35.4,0,0,1-7.62-11.37A34.87,34.87,0,0,1,83.5,45.59,35.49,35.49,0,0,1,93.88,20.21a37.69,37.69,0,0,1,11.25-7.75,32.79,32.79,0,0,1,13.63-2.88,34.27,34.27,0,0,1,14,2.88,38.9,38.9,0,0,1,11.5,7.75,36.21,36.21,0,0,1,7.88,11.38A34.27,34.27,0,0,1,155,45.59Z"/><path d="M279,64.84V180.09H419.75v47.25H279V377.59H220.25v-360h224.5V64.84H279Z"/></svg>