<svg xmlns="http://www.w3.org/2000/svg" viewBox="0 0 593.06 132.05"><title>full-black</title><path d="M67.58,145.86v77.26a30,30,0,0,1-1.22,8.68,18.79,18.79,0,0,1-3.89,7.09,18.18,18.18,0,0,1-6.88,4.75,26.85,26.85,0,0,1-10.19,1.73,26,26,0,0,1-4.54-.36,34.22,34.22,0,0,1-4.1-1l0.58-8.42a1.71,1.71,0,0,1,1.19-1.66,20.51,20.51,0,0,1,3.71-.22q5.47,0,7.67-2.41t2.2-8.17V145.86H67.58Zm2.52-22.18a9.69,9.69,0,0,1-.83,4A10.41,10.41,0,0,1,67,130.92a11.18,11.18,0,0,1-3.31,2.23,9.85,9.85,0,0,1-4,.83,9.43,9.43,0,0,1-3.92-.83,10.84,10.84,0,0,1-3.24-2.23,10.2,10.2,0,0,1-2.2-3.28,10.05,10.05,0,0,1-.79-4,10.22,10.22,0,0,1,3-7.31,10.86,10.86,0,0,1,3.24-2.23,9.44,9.44,0,0,1,3.92-.83,9.87,9.87,0,0,1,4,.83A11.2,11.2,0,0,1,67,116.37a10.42,10.42,0,0,1,2.27,3.28A9.87,9.87,0,0,1,70.1,123.68Z" transform="translate(-36.76 -113.31)"/><path d="M149,145.86V219.3h-9.36a3.76,3.76,0,0,1-4-3l-1.15-6.84a44.65,44.65,0,0,1-4.86,4.46,31.49,31.49,0,0,1-5.44,3.46,28.83,28.83,0,0,1-6.16,2.23,29.83,29.83,0,0,1-7,.79,26.39,26.39,0,0,1-10.66-2,21.15,21.15,0,0,1-7.74-5.69A24.49,24.49,0,0,1,88,203.92a38.41,38.41,0,0,1-1.58-11.34V145.86h15.48v46.73q0,7.42,3.42,11.52t10.4,4.1a20.11,20.11,0,0,0,9.54-2.34,32.26,32.26,0,0,0,8.32-6.44V145.86H149Z" transform="translate(-36.76 -113.31)"/><path d="M211.72,159.18a3.85,3.85,0,0,1-1.3,1.44,3.45,3.45,0,0,1-1.8.43,5.79,5.79,0,0,1-2.66-.76q-1.44-.76-3.38-1.69a29.33,29.33,0,0,0-4.57-1.69,22.39,22.39,0,0,0-6.16-.76,18.59,18.59,0,0,0-5.22.68,11.76,11.76,0,0,0-4,1.94,8.8,8.8,0,0,0-2.48,3,7.88,7.88,0,0,0-.86,3.64,6.15,6.15,0,0,0,1.58,4.32,13.7,13.7,0,0,0,4.18,3,40.38,40.38,0,0,0,5.9,2.27q3.31,1,6.77,2.16a68.24,68.24,0,0,1,6.77,2.66,25.39,25.39,0,0,1,5.9,3.71,16.9,16.9,0,0,1,4.18,5.33,16.7,16.7,0,0,1,1.58,7.6,24.17,24.17,0,0,1-1.87,9.58,21.52,21.52,0,0,1-5.47,7.63,25.17,25.17,0,0,1-9,5,38.55,38.55,0,0,1-12.28,1.8,39.07,39.07,0,0,1-7.38-.68,42.48,42.48,0,0,1-6.77-1.87,35.94,35.94,0,0,1-6-2.84,31.38,31.38,0,0,1-4.93-3.6l3.6-5.9a5,5,0,0,1,1.62-1.69,4.45,4.45,0,0,1,2.41-.61,5.39,5.39,0,0,1,3,1q1.47,1,3.46,2.12a27.31,27.31,0,0,0,4.79,2.12,21.58,21.58,0,0,0,7,1,19.22,19.22,0,0,0,6-.83,12,12,0,0,0,4.18-2.27,9.12,9.12,0,0,0,2.45-3.28,9.8,9.8,0,0,0,.79-3.92,6.72,6.72,0,0,0-1.58-4.61,13.44,13.44,0,0,0-4.21-3.1,38.92,38.92,0,0,0-6-2.3q-3.35-1-6.8-2.16a71,71,0,0,1-6.8-2.66,23.39,23.39,0,0,1-6-3.85,17.55,17.55,0,0,1-4.21-5.69,19,19,0,0,1-1.58-8.17,20.18,20.18,0,0,1,6.95-15.34,25.19,25.19,0,0,1,8.42-4.79,34.72,34.72,0,0,1,11.56-1.76A36.54,36.54,0,0,1,205,147.08a29.26,29.26,0,0,1,10.15,6.48Z" transform="translate(-36.76 -113.31)"/><path d="M254.27,220.45q-9.15,0-14.08-5.15t-4.93-14.51V158H227.2a3.25,3.25,0,0,1-2.23-.83,3.14,3.14,0,0,1-.94-2.48v-6.26l11.88-1.73,3.38-21.24a4.09,4.09,0,0,1,1.22-2,3.37,3.37,0,0,1,2.3-.76h7.92v24.12h20.38V158H250.74v41.69a8.56,8.56,0,0,0,1.94,6,6.74,6.74,0,0,0,5.18,2.09,9.11,9.11,0,0,0,3.1-.47,14,14,0,0,0,2.23-1q0.93-.54,1.62-1a2.2,2.2,0,0,1,3.42,1l4.61,7.56a25.1,25.1,0,0,1-8.5,4.86A30.66,30.66,0,0,1,254.27,220.45Z" transform="translate(-36.76 -113.31)"/><path d="M303.16,129.23v33.19h40.54V176H303.16V219.3H286.24V115.62h64.66v13.61H303.16Z" transform="translate(-36.76 -113.31)"/><path d="M390.2,144.71a39,39,0,0,1,14.72,2.66,31.58,31.58,0,0,1,11.23,7.56,33.58,33.58,0,0,1,7.16,11.88,50.13,50.13,0,0,1,0,31.39,33.92,33.92,0,0,1-7.16,11.92,31.33,31.33,0,0,1-11.23,7.6,42.22,42.22,0,0,1-29.52,0,31.67,31.67,0,0,1-11.27-7.6,33.62,33.62,0,0,1-7.2-11.92,50.15,50.15,0,0,1,0-31.39,33.28,33.28,0,0,1,7.2-11.88,31.93,31.93,0,0,1,11.27-7.56A39.18,39.18,0,0,1,390.2,144.71Zm0,63.58q9.94,0,14.8-6.66t4.86-19q0-12.38-4.86-19.12t-14.8-6.73q-10.08,0-15,6.73t-4.9,19.12q0,12.38,4.9,19T390.2,208.28Z" transform="translate(-36.76 -113.31)"/><path d="M455.29,159.46a32.46,32.46,0,0,1,8.35-11,18,18,0,0,1,11.74-4,17.78,17.78,0,0,1,4.46.54,12.55,12.55,0,0,1,3.74,1.62l-1.08,11.66a2.9,2.9,0,0,1-.9,1.69,2.6,2.6,0,0,1-1.62.47,17.3,17.3,0,0,1-3.1-.4,22.08,22.08,0,0,0-4.25-.4,16.2,16.2,0,0,0-5.72.94,13.84,13.84,0,0,0-4.46,2.74,18.41,18.41,0,0,0-3.49,4.39,42.41,42.41,0,0,0-2.81,5.9V219.3H440.68V145.86h9a4.89,4.89,0,0,1,3.38.9,5.55,5.55,0,0,1,1.3,3.13Z" transform="translate(-36.76 -113.31)"/><path d="M502.53,183.8a36.81,36.81,0,0,0,1.94,10.84,22.32,22.32,0,0,0,4.43,7.6,17.2,17.2,0,0,0,6.62,4.5,23.87,23.87,0,0,0,8.6,1.48,26.23,26.23,0,0,0,7.85-1,36.81,36.81,0,0,0,5.76-2.3q2.45-1.26,4.18-2.3a6.25,6.25,0,0,1,3.17-1A3.31,3.31,0,0,1,548,203l4.39,5.69a27.89,27.89,0,0,1-6.19,5.47,36.06,36.06,0,0,1-7.34,3.64,41.49,41.49,0,0,1-8,2,54.21,54.21,0,0,1-8,.61,38.42,38.42,0,0,1-14.15-2.56,31.45,31.45,0,0,1-11.3-7.52A34.73,34.73,0,0,1,489.89,198a48.87,48.87,0,0,1-2.7-16.92,41.32,41.32,0,0,1,2.41-14.26,34,34,0,0,1,6.91-11.52,32.46,32.46,0,0,1,10.94-7.74A35.76,35.76,0,0,1,522,144.71a34.9,34.9,0,0,1,12.53,2.2,27.48,27.48,0,0,1,9.94,6.44,29.67,29.67,0,0,1,6.52,10.4,39.24,39.24,0,0,1,2.34,14q0,3.6-.79,4.82a3.17,3.17,0,0,1-2.88,1.22H502.53Zm36.94-9.5a22.77,22.77,0,0,0-1.12-7.24,17,17,0,0,0-3.28-5.83,14.94,14.94,0,0,0-5.36-3.89,18.24,18.24,0,0,0-7.38-1.4q-8.42,0-13.25,4.82T503,174.3h36.5Z" transform="translate(-36.76 -113.31)"/><path d="M629.82,219.3H615a4.1,4.1,0,0,1-2.84-.94,8.18,8.18,0,0,1-1.69-2.09l-16.92-27.14a16.35,16.35,0,0,1-1.73,4.25l-15.34,22.9a13.53,13.53,0,0,1-1.76,2.09,3.53,3.53,0,0,1-2.56.94H558.33l25.42-37.87-24.41-35.57h14.83a4.94,4.94,0,0,1,2.63.54,4.88,4.88,0,0,1,1.48,1.62l16.63,25.92a16.6,16.6,0,0,1,2-4.54l14-21.1a4.22,4.22,0,0,1,3.67-2.45h14.18l-24.41,34.92Z" transform="translate(-36.76 -113.31)"/></svg>